<svg width="113" height="75" viewBox="0 0 113 75" fill="none" xmlns="http://www.w3.org/2000/svg">
<g clip-path="url(#clip0)">
<path fill-rule="evenodd" clip-rule="evenodd" d="M27.0582 22.1365C26.9478 21.8937 26.8154 21.673 26.6389 21.4744C26.3519 21.1433 26.065 20.8123 25.8443 20.5474C25.6016 20.2605 25.5574 19.8633 25.734 19.5543C25.8443 19.3336 25.9547 19.1349 26.0871 18.9142C26.2637 18.5832 26.6168 18.4066 26.992 18.4728C27.323 18.517 27.7645 18.5832 28.2059 18.6494C29.2873 18.8039 30.3467 18.3404 30.9867 17.4576C31.0309 17.4135 31.0529 17.3472 31.0971 17.3031C31.7371 16.4203 31.8254 15.2506 31.3178 14.3015C31.1191 13.9043 30.9205 13.507 30.766 13.2201C30.5895 12.889 30.6557 12.4918 30.8984 12.2269C31.0529 12.0504 31.2295 11.8738 31.384 11.6972C31.6268 11.4324 32.024 11.3441 32.3771 11.4765C32.6861 11.609 33.1055 11.7635 33.5027 11.94C34.518 12.3373 35.6656 12.1607 36.4822 11.4545C36.5264 11.4103 36.5705 11.3662 36.6367 11.3441C37.4533 10.6379 37.8285 9.53435 37.5857 8.47498C37.4754 8.05564 37.3871 7.61423 37.2988 7.28318C37.2105 6.93006 37.365 6.55486 37.674 6.33416C37.8727 6.20174 38.0713 6.06931 38.2699 5.93689C38.5789 5.73826 38.9762 5.73826 39.2852 5.95896C39.55 6.15759 39.9252 6.42244 40.2783 6.66521C41.1611 7.30525 42.3309 7.39353 43.2799 6.90799C43.3461 6.88591 43.3902 6.84177 43.4564 6.8197C44.4275 6.33416 45.0455 5.34099 45.0676 4.25955C45.0676 3.81814 45.0676 3.37673 45.0897 3.04568C45.0897 2.67049 45.3324 2.33943 45.6635 2.22908C45.8842 2.1408 46.127 2.05252 46.3477 1.98631C46.7008 1.85388 47.076 1.96423 47.3188 2.25115C47.5395 2.51599 47.8264 2.84705 48.1133 3.1781C48.8195 4.01677 49.9231 4.3699 50.9824 4.12713C51.0486 4.10506 51.1148 4.10506 51.159 4.08298C52.2184 3.84021 53.057 3.02361 53.3219 1.98631C53.4322 1.56697 53.5426 1.12556 53.6309 0.816578C53.7191 0.463453 54.0281 0.19861 54.3813 0.154469C54.624 0.132399 54.8668 0.110328 55.1096 0.0882581C55.4848 0.0441175 55.8158 0.24275 55.9924 0.573805C56.1469 0.882789 56.3455 1.28006 56.5441 1.65525C57.0297 2.62634 58.0229 3.24431 59.1043 3.26638C59.1705 3.26638 59.2367 3.26638 59.3029 3.26638C60.3844 3.28845 61.3996 2.69256 61.9072 1.74353C62.1059 1.34627 62.3266 0.971071 62.4811 0.662086C62.6576 0.331032 63.0107 0.154469 63.3859 0.19861C63.6287 0.22068 63.8715 0.264821 64.1143 0.286891C64.4895 0.331032 64.7764 0.617946 64.8426 0.971071C64.9088 1.30213 65.0191 1.72146 65.1074 2.16287C65.3502 3.22224 66.1447 4.06091 67.2041 4.32576C67.2703 4.34783 67.3145 4.34783 67.3807 4.3699C68.44 4.65681 69.5436 4.32576 70.2719 3.50916C70.5588 3.1781 70.8678 2.84705 71.0885 2.60427C71.3313 2.33943 71.7285 2.22908 72.0596 2.3615C72.2803 2.44978 72.501 2.53806 72.7438 2.62634C73.0748 2.75877 73.2955 3.11189 73.2955 3.46502C73.2955 3.79607 73.2734 4.23748 73.2734 4.67888C73.2514 5.76033 73.8252 6.77556 74.7963 7.28318C74.8404 7.30525 74.9067 7.34939 74.9508 7.37146C75.8998 7.90115 77.0695 7.83494 77.9744 7.23904C78.3496 6.99627 78.7027 6.75349 78.9897 6.55486C79.2986 6.35623 79.6959 6.35623 80.0049 6.55486C80.2035 6.68728 80.4022 6.84177 80.6008 6.9742C80.8877 7.1949 81.0422 7.57009 80.9319 7.92322C80.8436 8.25427 80.7332 8.67361 80.6229 9.09295C80.3359 10.1523 80.667 11.2558 81.4615 11.9842C81.5057 12.0283 81.5498 12.0724 81.594 12.1166C82.3885 12.8449 83.5361 13.0877 84.5514 12.7125C84.9707 12.558 85.368 12.4035 85.699 12.2931C86.0522 12.1607 86.4274 12.2711 86.6701 12.5359C86.8246 12.7125 86.9791 12.9111 87.1336 13.0877C87.3764 13.3746 87.3985 13.7719 87.2219 14.0808C87.0674 14.3678 86.8467 14.765 86.626 15.1402C86.4936 15.383 86.4053 15.6258 86.3391 15.8685L75.4363 17.0162C70.1836 12.6021 63.2314 10.2406 55.882 11.0131C48.5326 11.7855 42.2205 15.5375 37.983 20.9447L27.0582 22.1365ZM90.0469 51.9314C90.1572 52.1963 90.3117 52.439 90.5104 52.6818C90.7973 53.0129 91.0842 53.3439 91.3049 53.6088C91.5477 53.8957 91.5918 54.2929 91.4153 54.6019C91.3049 54.8226 91.1945 55.0213 91.0621 55.242C90.8856 55.573 90.5324 55.7496 90.1572 55.6834C89.8262 55.6392 89.3848 55.573 88.9434 55.5068C87.8619 55.3523 86.8026 55.8158 86.1625 56.6986C86.1184 56.7428 86.0963 56.809 86.0522 56.8531C85.4121 57.7359 85.3238 58.9056 85.8315 59.8547C86.0301 60.2519 86.2287 60.6492 86.3832 60.9361C86.5598 61.2672 86.4936 61.6644 86.2508 61.9293C86.0963 62.1058 85.9197 62.2824 85.7652 62.459C85.5225 62.7238 85.1252 62.8121 84.7721 62.6797C84.4631 62.5472 84.0438 62.3928 83.6465 62.2162C82.6313 61.8189 81.4836 61.9955 80.667 62.7017C80.6229 62.7459 80.5787 62.79 80.5125 62.8121C79.6959 63.5183 79.3207 64.6219 79.5635 65.6812C79.6738 66.1006 79.7621 66.542 79.8504 66.873C79.9387 67.2262 79.7842 67.6013 79.4752 67.822C79.2766 67.9545 79.0779 68.0869 78.8793 68.2193C78.5703 68.418 78.1731 68.4179 77.8641 68.1972C77.5992 67.9986 77.224 67.7338 76.8709 67.491C75.9881 66.851 74.8184 66.7627 73.8693 67.2482C73.8031 67.2703 73.759 67.3144 73.6928 67.3365C72.7217 67.8221 72.1037 68.8152 72.0816 69.8967C72.0816 70.3381 72.0816 70.7795 72.0596 71.1105C72.0596 71.4857 71.8168 71.8168 71.4857 71.9271C71.265 72.0154 71.0223 72.1037 70.8016 72.1699C70.4484 72.2803 70.0732 72.192 69.8305 71.9051C69.6098 71.6402 69.3229 71.3092 69.0359 70.9781C68.3297 70.1394 67.2262 69.7863 66.1668 70.0291C66.1006 70.0511 66.0344 70.0512 65.9902 70.0732C64.9309 70.316 64.0922 71.1326 63.8274 72.1699C63.717 72.5892 63.6066 73.0306 63.5184 73.3396C63.4301 73.6927 63.1211 73.9576 62.768 74.0017C62.5252 74.0238 62.2824 74.0459 62.0397 74.0679C61.6645 74.1121 61.3334 73.9135 61.1568 73.5824C61.0023 73.2734 60.8037 72.8762 60.6051 72.501C60.1195 71.5299 59.1264 70.9119 58.0449 70.8898C57.9787 70.8898 57.9125 70.8898 57.8463 70.8898C56.7648 70.8678 55.7496 71.4637 55.242 72.4127C55.0434 72.8099 54.8227 73.1851 54.6682 73.4941C54.4916 73.8252 54.1385 74.0017 53.7633 73.9576C53.5205 73.9355 53.2777 73.8914 53.035 73.8693C52.6598 73.8252 52.3729 73.5383 52.3066 73.1851C52.2404 72.8541 52.1301 72.4347 52.0418 71.9933C51.799 70.934 51.0045 70.0953 49.9451 69.8304C49.8789 69.8084 49.8348 69.8084 49.7686 69.7863C48.7092 69.4994 47.6057 69.8305 46.8773 70.647C46.5904 70.9781 46.2814 71.3092 46.0607 71.5519C45.818 71.8168 45.4207 71.9271 45.0897 71.7947C44.8689 71.7064 44.6482 71.6181 44.4055 71.5299C44.0744 71.3974 43.8537 71.0443 43.8537 70.6912C43.8537 70.3601 43.8758 69.9187 43.8758 69.4773C43.8979 68.3959 43.324 67.3806 42.3529 66.873C42.3088 66.851 42.2426 66.8068 42.1984 66.7847C41.2494 66.2551 40.0797 66.3213 39.1748 66.9172C38.7996 67.1599 38.4465 67.4027 38.1596 67.6013C37.8506 67.8 37.4533 67.8 37.1443 67.6013C36.9457 67.4689 36.7471 67.3144 36.5484 67.182C36.2615 66.9613 36.107 66.5861 36.2174 66.233C36.3057 65.9019 36.416 65.4826 36.5264 65.0633C36.8133 64.0039 36.4822 62.9004 35.6877 62.1721C35.6436 62.1279 35.5994 62.0838 35.5553 62.0396C34.7607 61.3113 33.6131 61.0685 32.5978 61.4437C32.1785 61.5982 31.7812 61.7527 31.4502 61.8631C31.0971 61.9955 30.7219 61.8851 30.4791 61.6203C30.3246 61.4437 30.1701 61.2451 30.0156 61.0685C29.7729 60.7816 29.7508 60.3844 29.9273 60.0754C30.0818 59.7885 30.3025 59.3912 30.5232 59.016C30.6777 58.7511 30.766 58.4863 30.8322 58.1994L41.6246 57.0738C46.8773 61.532 53.8957 63.9377 61.2893 63.1431C68.6828 62.3707 75.0391 58.5746 79.2545 53.1012L90.0469 51.9314Z" fill="#FF4E00"/>
<path d="M10.7924 44.6703C9.11504 44.8469 7.59219 44.7365 6.2459 44.3613C4.89961 43.9861 3.77402 43.324 2.84707 42.3971C1.92012 41.4701 1.21387 40.3004 0.72832 38.8879C0.242773 37.4754 0 35.8201 0 33.9221C0 32.024 0.308984 30.3026 0.882812 28.7797C1.45664 27.2569 2.25117 25.9326 3.24434 24.8071C4.2375 23.6815 5.40723 22.7987 6.75352 22.1145C8.0998 21.4524 9.53438 21.033 11.0793 20.8785C12.0063 20.7903 12.8449 20.7682 13.6174 20.8344C14.3678 20.9006 15.0299 20.9889 15.6037 21.0992C16.1555 21.2096 16.6189 21.342 16.9941 21.5186C17.3693 21.6731 17.6121 21.7834 17.7666 21.8717L16.5527 25.3588C16.0451 25.094 15.2947 24.8512 14.3236 24.6526C13.3525 24.4539 12.3152 24.4098 11.1896 24.5422C10.2186 24.6526 9.31367 24.9174 8.45293 25.3367C7.61426 25.7561 6.86387 26.352 6.2459 27.1024C5.62793 27.8528 5.14238 28.7576 4.78926 29.817C4.43613 30.8764 4.25957 32.0902 4.25957 33.4586C4.25957 34.6725 4.39199 35.7539 4.65684 36.725C4.92168 37.6961 5.34102 38.5348 5.89277 39.1969C6.44453 39.8811 7.17285 40.3666 8.03359 40.6756C8.89434 40.9846 9.93164 41.0729 11.1455 40.9625C12.6021 40.808 13.7719 40.5432 14.6768 40.1459C15.5816 39.7486 16.2879 39.3955 16.7955 39.0865L17.877 42.3529C17.6121 42.5516 17.259 42.7723 16.8176 42.993C16.3762 43.2137 15.8465 43.4344 15.2506 43.6772C14.6547 43.8979 13.9705 44.1186 13.198 44.2951C12.4697 44.4275 11.6531 44.56 10.7924 44.6703Z" fill="#008CE0"/>
<path d="M30.5674 32.7965C30.5674 32.311 30.5012 31.8475 30.3688 31.4061C30.2363 30.9647 30.0377 30.6116 29.7729 30.3026C29.508 29.9936 29.199 29.7729 28.8018 29.6405C28.4266 29.486 27.9631 29.4418 27.4334 29.508C26.8817 29.5743 26.3961 29.7287 25.9988 29.9715C25.5795 30.2143 25.2484 30.5233 24.9615 30.8985C24.6746 31.2737 24.4539 31.6709 24.2994 32.1344C24.1449 32.5758 24.0346 33.0393 23.9684 33.5028L30.5674 32.7965ZM20.2606 35.4891C20.2606 34.1207 20.4813 32.9069 20.8785 31.8254C21.2758 30.744 21.8275 29.8391 22.4897 29.0887C23.1518 28.3383 23.9242 27.7424 24.785 27.301C25.6457 26.8596 26.5285 26.5948 27.4334 26.5065C29.5522 26.2858 31.1854 26.7713 32.3772 27.9852C33.5469 29.177 34.1428 31.0971 34.1207 33.7455C34.1207 33.9442 34.1207 34.1649 34.0986 34.4077C34.0986 34.6504 34.0766 34.8711 34.0545 35.0698L23.9242 36.1291C24.0125 37.3651 24.4539 38.292 25.2264 38.8879C25.9988 39.4838 27.1244 39.7045 28.5811 39.55C29.4418 39.4618 30.2363 39.3073 30.9426 39.0645C31.6488 38.8217 32.2227 38.601 32.642 38.3803L33.1055 41.2715C32.9068 41.3819 32.642 41.5143 32.2889 41.6688C31.9358 41.8233 31.5606 41.9557 31.1191 42.0881C30.6777 42.2205 30.1922 42.353 29.6846 42.4633C29.177 42.5737 28.6473 42.662 28.1176 42.7061C26.7713 42.8385 25.6016 42.7723 24.5863 42.4633C23.5932 42.1543 22.7766 41.6909 22.1365 41.0287C21.4965 40.3666 21.0109 39.5721 20.702 38.6231C20.393 37.7182 20.2385 36.6588 20.2606 35.4891Z" fill="#008CE0"/>
<path d="M37.034 26.3961C37.7182 26.1313 38.601 25.8444 39.7045 25.5574C40.808 25.2705 42.0219 25.0498 43.3461 24.9174C44.6041 24.785 45.6414 24.8512 46.4801 25.116C47.3188 25.3809 47.9809 25.7781 48.4885 26.352C48.974 26.9258 49.3272 27.6321 49.5258 28.4928C49.7244 29.3535 49.8348 30.3026 49.8127 31.3619L49.7686 40.1018L46.2153 40.477L46.2594 32.311C46.2594 31.4723 46.2153 30.766 46.1049 30.2143C45.9945 29.6405 45.818 29.177 45.5752 28.8459C45.3324 28.5149 45.0014 28.2721 44.582 28.1397C44.1627 28.0073 43.6551 27.9852 43.0371 28.0514C42.5957 28.0955 42.1102 28.1838 41.6246 28.2942C41.1391 28.4045 40.7639 28.4928 40.5432 28.559L40.477 41.0949L36.9236 41.4701L37.034 26.3961Z" fill="#008CE0"/>
<path d="M53.1233 20.084L56.6766 19.1129L56.6545 23.8139L62.1279 23.2401L62.1059 26.2416L56.6324 26.8155L56.6104 33.1496C56.6104 34.4076 56.7869 35.2684 57.1842 35.7539C57.5815 36.2395 58.2436 36.4381 59.1705 36.3498C59.8106 36.2836 60.3844 36.1512 60.892 35.9526C61.3996 35.7539 61.7969 35.5994 62.0838 35.4449L62.6576 38.2258C62.2383 38.4465 61.7086 38.6893 61.0465 38.9541C60.3844 39.219 59.5898 39.3955 58.685 39.4838C57.5815 39.5942 56.6766 39.55 55.9483 39.3293C55.2199 39.1086 54.624 38.7334 54.2047 38.2258C53.7854 37.6961 53.4764 37.0561 53.2998 36.2615C53.1233 35.4891 53.035 34.5621 53.057 33.5469L53.1233 20.084Z" fill="#008CE0"/>
<path d="M73.45 25.2926C73.1631 25.2264 72.7438 25.1602 72.2361 25.116C71.7285 25.0719 71.1106 25.0719 70.4264 25.1381C70.0291 25.1822 69.6098 25.2705 69.1684 25.3809C68.727 25.5133 68.418 25.6016 68.2414 25.6899L68.1752 38.1375L64.6219 38.5127L64.6881 23.7256C65.3723 23.3946 66.233 23.0635 67.2703 22.7324C68.3076 22.4014 69.4332 22.1586 70.6912 22.0262C70.934 22.0041 71.1988 21.9821 71.5078 21.9821C71.8168 21.9821 72.1258 21.9821 72.4568 22.0041C72.7658 22.0262 73.0748 22.0483 73.3617 22.0924C73.6486 22.1365 73.8914 22.1807 74.068 22.2028L73.45 25.2926Z" fill="#008CE0"/>
<path d="M88.215 35.5553C87.5309 35.7981 86.648 36.085 85.5445 36.394C84.441 36.7029 83.2492 36.9236 81.925 37.0561C80.6891 37.1885 79.6518 37.1223 78.8352 36.8574C77.9965 36.5926 77.3344 36.1733 76.8488 35.5774C76.3633 35.0035 75.9881 34.2752 75.7895 33.4145C75.5687 32.5537 75.4805 31.6047 75.4805 30.5453L75.5246 21.8496L79.0779 21.4744L79.0338 29.6184C79.0338 31.2736 79.2545 32.4434 79.74 33.1055C80.2256 33.7676 81.0422 34.0324 82.2561 33.9221C82.6975 33.8779 83.1389 33.8117 83.6244 33.7235C84.11 33.6352 84.4631 33.5469 84.7059 33.4586L84.7721 20.9006L88.3254 20.5254L88.215 35.5553Z" fill="#008CE0"/>
<path d="M100.641 26.5507C100.641 24.9175 100.442 23.7698 100.045 23.0856C99.6475 22.4014 98.8971 22.1145 97.7936 22.247C97.3963 22.2911 96.977 22.3573 96.4914 22.4677C96.0279 22.578 95.6748 22.6663 95.432 22.7325L95.3658 35.2684L91.8125 35.6436L91.8787 20.6138C92.5629 20.3489 93.4678 20.062 94.5713 19.7751C95.6748 19.4882 96.8445 19.2675 98.0805 19.135C99.1398 19.0247 100.001 19.0688 100.685 19.2675C101.369 19.4661 101.921 19.7751 102.362 20.1944C102.583 20.0179 102.848 19.8192 103.179 19.5985C103.51 19.3778 103.885 19.1792 104.304 18.9806C104.724 18.7819 105.143 18.6274 105.606 18.4729C106.07 18.3184 106.533 18.2302 106.997 18.186C108.189 18.0536 109.182 18.1198 109.954 18.4067C110.727 18.6716 111.323 19.0909 111.764 19.6647C112.205 20.2386 112.492 20.9669 112.669 21.8276C112.823 22.6884 112.912 23.6374 112.912 24.6968L112.868 33.4366L109.314 33.8118L109.358 25.6458C109.358 24.0126 109.182 22.8649 108.785 22.1807C108.387 21.4966 107.637 21.2096 106.533 21.3421C105.96 21.4083 105.43 21.5628 104.922 21.7835C104.415 22.0263 104.039 22.247 103.775 22.4456C103.929 22.9311 104.039 23.4387 104.084 23.9905C104.15 24.5423 104.172 25.1382 104.172 25.7561L104.128 34.3415L100.574 34.7167L100.641 26.5507Z" fill="#008CE0"/>
<path d="M19.775 55.5289L16.9059 55.8379L14.434 52.7039L13.3526 52.8142L13.3305 56.213L10.991 56.4558L11.0352 47.2084L14.9858 46.789C15.5154 46.7228 15.9789 46.7228 16.3762 46.7449C16.7735 46.767 17.1266 46.8552 17.4576 47.0318C17.8108 47.2084 18.0756 47.4511 18.2742 47.7601C18.4729 48.0691 18.5832 48.4664 18.5612 48.974C18.5612 49.6582 18.4067 50.232 18.0756 50.6955C17.7666 51.1589 17.3031 51.5562 16.7293 51.9093L19.775 55.5289ZM16.1113 49.5037C16.1113 49.2609 16.0672 49.0843 15.9789 48.9298C15.8906 48.7754 15.7141 48.665 15.4934 48.5988C15.3389 48.5547 15.1402 48.5326 14.9416 48.5326C14.7209 48.5326 14.4781 48.5547 14.1912 48.5988L13.3305 48.6871L13.3084 51.181L14.0367 51.1148C14.4119 51.0707 14.7209 51.0265 14.9858 50.9603C15.2506 50.8941 15.4492 50.7838 15.6258 50.6293C15.7803 50.4748 15.9127 50.3203 15.9789 50.1658C16.0893 49.9672 16.1113 49.7685 16.1113 49.5037Z" fill="#008CE0"/>
<path d="M26.5727 52.5493C26.7934 52.2403 26.9699 51.8872 27.0803 51.4899C27.1906 51.0927 27.2568 50.6292 27.2568 50.1216C27.2568 49.5698 27.1906 49.1064 27.0803 48.7312C26.9479 48.356 26.7934 48.069 26.5947 47.8483C26.3961 47.6276 26.1533 47.4731 25.8664 47.3849C25.6016 47.2966 25.3146 47.2745 25.0277 47.2966C24.7188 47.3187 24.4539 47.4069 24.1891 47.5394C23.9242 47.6718 23.6814 47.8704 23.4607 48.1573C23.2621 48.4001 23.0855 48.7532 22.9531 49.1726C22.8207 49.5919 22.7545 50.0774 22.7545 50.6071C22.7545 51.1589 22.8207 51.6224 22.9311 51.9976C23.0635 52.3728 23.218 52.6597 23.4166 52.9024C23.6152 53.1232 23.858 53.2776 24.1229 53.3659C24.3877 53.4542 24.6746 53.4763 24.9836 53.4542C25.2926 53.4321 25.5795 53.3439 25.8443 53.1894C26.1312 53.0128 26.374 52.8142 26.5727 52.5493ZM29.7066 49.8788C29.7066 51.3575 29.2873 52.5714 28.4486 53.5204C27.61 54.4694 26.4623 55.0212 24.9836 55.1757C23.5049 55.3302 22.3572 55.0212 21.5406 54.2487C20.702 53.4763 20.3047 52.3507 20.3047 50.872C20.3047 49.3933 20.724 48.1573 21.5627 47.2083C22.4014 46.2593 23.549 45.7075 25.0277 45.553C26.4844 45.3985 27.632 45.7075 28.4707 46.48C29.3094 47.2524 29.7066 48.378 29.7066 49.8788Z" fill="#008CE0"/>
<path d="M44.1406 43.7213L41.6246 53.2336L39.0203 53.4985L37.4092 47.6498L35.7981 53.8516L33.1938 54.1164L30.7661 45.1338L33.2159 44.869L34.6063 51.0928L36.3057 44.56L38.6672 44.3172L40.2342 50.4969L41.735 43.9862L44.1406 43.7213Z" fill="#008CE0"/>
<path d="M52.2846 52.1081L45.6635 52.8143L45.7077 43.5668L52.3288 42.8606L52.3067 44.6483L48.0471 45.1118V46.7008L51.9977 46.2815V48.0692L48.025 48.4885V50.7838L52.2846 50.3204V52.1081Z" fill="#008CE0"/>
<path d="M63.0549 50.9825L60.1858 51.2915L57.7139 48.1575L56.6325 48.2678L56.6104 51.6667L54.2709 51.9094L54.3151 42.662L58.2657 42.2426C58.7954 42.1764 59.2809 42.1764 59.6561 42.1985C60.0534 42.2206 60.4065 42.3089 60.7375 42.4854C61.0907 42.662 61.3555 42.9048 61.5541 43.2137C61.7528 43.5227 61.8631 43.92 61.8631 44.4276C61.8631 45.1118 61.7086 45.6856 61.3776 46.1491C61.0686 46.6126 60.6051 47.0098 60.0313 47.363L63.0549 50.9825ZM59.4133 44.9573C59.4133 44.7145 59.3692 44.538 59.2809 44.3835C59.1926 44.229 59.0161 44.1186 58.7953 44.0524C58.6409 44.0083 58.4422 43.9862 58.2436 43.9862C58.0229 43.9862 57.7801 44.0083 57.4932 44.0524L56.6325 44.1407L56.6104 46.6346L57.3387 46.5684C57.7139 46.5243 58.0229 46.4801 58.2877 46.4139C58.5305 46.3477 58.7512 46.2374 58.9278 46.0829C59.0823 45.9284 59.2147 45.7739 59.2809 45.6194C59.3692 45.4208 59.4133 45.2221 59.4133 44.9573Z" fill="#008CE0"/>
<path d="M69.8525 47.9808C70.0732 47.6718 70.2498 47.3187 70.3601 46.9215C70.4705 46.5242 70.5367 46.0607 70.5367 45.5531C70.5367 45.0013 70.4705 44.5379 70.3601 44.1627C70.2277 43.7875 70.0732 43.5006 69.8746 43.2799C69.6759 43.0592 69.4332 42.9047 69.1462 42.8164C68.8814 42.7281 68.5945 42.706 68.3076 42.7281C67.9986 42.7502 67.7337 42.8385 67.4689 42.9709C67.2041 43.1033 66.9613 43.3019 66.7406 43.5888C66.5419 43.8316 66.3654 44.1847 66.233 44.6041C66.1005 45.0234 66.0343 45.509 66.0343 46.0386C66.0343 46.5904 66.1005 47.0539 66.2109 47.4291C66.3433 47.8043 66.4978 48.0912 66.6964 48.334C66.8951 48.5547 67.1378 48.7092 67.4027 48.7974C67.6675 48.8857 67.9544 48.9078 68.2634 48.8857C68.5724 48.8636 68.8593 48.7754 69.1242 48.6209C69.4111 48.4664 69.6539 48.2677 69.8525 47.9808ZM72.9865 45.3103C72.9865 46.789 72.5671 48.0029 71.7285 48.9519C70.8898 49.901 69.7421 50.4527 68.2634 50.6072C66.7847 50.7617 65.6371 50.4527 64.8205 49.6802C63.9818 48.9078 63.5845 47.7822 63.5845 46.3035C63.5845 44.8248 64.0039 43.5888 64.8425 42.6398C65.6812 41.6908 66.8289 41.139 68.3076 40.9845C69.7642 40.8301 70.9119 41.139 71.7505 41.9115C72.5892 42.706 72.9865 43.8316 72.9865 45.3103Z" fill="#008CE0"/>
<path d="M87.4205 39.1748L84.9266 48.6871L82.3002 48.952L80.6891 43.1033L79.0779 49.3051L76.4736 49.5699L74.0459 40.5873L76.5178 40.3225L77.8861 46.5463L79.5855 40.0135L81.9471 39.7486L83.5141 45.9504L85.0148 39.4396L87.4205 39.1748Z" fill="#008CE0"/>
<path d="M95.5645 47.5614L88.9434 48.2677L88.9875 39.0202L95.6086 38.314L95.5865 40.1017L91.327 40.5651V42.1542L95.2775 41.7349V43.5225L91.3049 43.9419V46.2151L95.5645 45.7737V47.5614Z" fill="#008CE0"/>
<path d="M99.7799 47.1201L97.4846 47.3629L97.5066 44.9131L99.8019 44.6703L99.7799 47.1201Z" fill="#008CE0"/>
<path d="M106.887 42.8385C106.887 42.1543 106.776 41.6908 106.555 41.4039C106.335 41.117 105.96 41.0066 105.474 41.0508C105.275 41.0729 105.055 41.117 104.834 41.2053C104.613 41.2936 104.393 41.4039 104.194 41.5584L104.172 45.0676C104.326 45.1117 104.481 45.1338 104.635 45.1338C104.812 45.1338 104.966 45.1338 105.121 45.1117C105.695 45.0455 106.136 44.8248 106.423 44.4496C106.732 44.0744 106.887 43.5447 106.887 42.8385ZM109.16 42.5516C109.16 43.1254 109.071 43.6551 108.895 44.1406C108.718 44.6262 108.498 45.0455 108.211 45.3766C107.924 45.7297 107.571 46.0166 107.218 46.2152C106.842 46.4139 106.445 46.5463 106.026 46.5904C105.629 46.6346 105.297 46.6346 105.033 46.5684C104.768 46.5022 104.481 46.4139 104.194 46.3035L104.172 49.2168L101.965 49.4596L102.009 39.9252L104.216 39.6824V40.4107C104.547 40.1018 104.9 39.8369 105.253 39.6383C105.606 39.4397 106.026 39.3072 106.467 39.2631C107.328 39.1748 107.99 39.4176 108.454 40.0135C108.939 40.5873 109.16 41.4481 109.16 42.5516Z" fill="#FF4E00"/>
<path d="M112.956 45.7297L110.749 45.9725L110.793 36.3057L113 36.085L112.956 45.7297Z" fill="#FF4E00"/>
</g>
<defs>
<clipPath id="clip0">
<rect width="113" height="74.1562" fill="white"/>
</clipPath>
</defs>
</svg>
